<svg width="16" height="16" viewBox="0 0 16 16" fill="none" xmlns="http://www.w3.org/2000/svg">
<style>
  path { fill: #E9E9E9; }
  @media (prefers-color-scheme: light) {
    path { fill: #14120B; }
  }
</style>
<path d="M6.57422 5.57422L7.58301 8.79688H5.49805L6.50391 5.57422H6.57422Z"/>
<path fill-rule="evenodd" clip-rule="evenodd" d="M12 1C13.1097 1 14.0758 1.60424 14.5947 2.5H10V3.5H12V13H10V14H14.2314C13.6822 14.6124 12.8874 15 12 15H4C2.34315 15 1 13.6569 1 12V4C1 2.34315 2.34315 1 4 1H12ZM5.08398 3.28418L2.02832 12.375H4.38184L4.97754 10.4658H8.10449L8.70215 12.375H11.0557L7.99902 3.28418H5.08398Z"/>
<path d="M14.958 3.5C14.9853 3.66263 15 3.82961 15 4V12C15 12.351 14.9369 12.6869 14.8262 13H13V3.5H14.958Z"/>
</svg>
