<svg width="105" height="20" viewBox="0 0 105 20" fill="none" xmlns="http://www.w3.org/2000/svg">
<path d="M0 4.61538C0 2.06638 2.05884 0 4.59854 0H15.3285C17.8682 0 19.927 2.06638 19.927 4.61538V15.3846C19.927 17.9336 17.8682 20 15.3285 20H4.59854C2.05884 20 0 17.9336 0 15.3846V4.61538Z" fill="#DEDEDE"/>
<path d="M16.4781 5.38459H14.562V14.6154H16.4781V15.3846H11.8795V14.6154H13.7956V5.38459H11.8795V4.61536H16.4781V5.38459Z" fill="#282828"/>
<path fill-rule="evenodd" clip-rule="evenodd" d="M13.0554 14.375H10.7022L10.1049 12.4662H6.97713L6.38136 14.375H4.0282L7.08416 5.28393H9.99867L13.0554 14.375ZM7.49806 10.797H9.58252L8.57435 7.57434H8.50399L7.49806 10.797Z" fill="#282828"/>
<path d="M72.7466 7.183C73 7.18303 73.1656 7.32383 73.2428 7.60592L74.4912 12.2446C74.5518 12.4603 74.6043 12.74 74.6484 13.0829C74.6979 13.4199 74.7224 13.6356 74.7225 13.7297H74.7719C74.838 13.4366 74.885 13.2041 74.9126 13.0326C74.9457 12.8555 75.0309 12.5154 75.1686 12.0125L76.3511 7.60592C76.4283 7.32383 76.5938 7.183 76.8474 7.183H78.3271C78.6522 7.183 78.7434 7.39849 78.6003 7.82978L75.8137 16.244C75.4885 17.2287 75.0887 17.9977 74.6147 18.5509C74.1407 19.1041 73.4821 19.381 72.6388 19.381C72.1759 19.381 71.7623 19.342 71.3986 19.2646C71.1894 19.2203 71.1095 19.0766 71.1591 18.8334L71.3409 17.9207C71.3905 17.6829 71.531 17.5995 71.7623 17.6713C71.9332 17.7266 72.0933 17.7547 72.2421 17.7547C72.6886 17.7547 73.0278 17.5414 73.2592 17.1154C73.4962 16.6895 73.6529 16.3243 73.73 16.0201L73.7555 15.8954L70.9937 7.82978C70.845 7.39846 70.9362 7.183 71.2668 7.183H72.7466Z" fill="#F8F8F8"/>
<path fill-rule="evenodd" clip-rule="evenodd" d="M84.2639 7.01698C85.5589 7.01707 86.4684 7.46763 86.992 8.36915C87.5211 9.26531 87.7854 10.3222 87.7854 11.5392C87.7854 12.7563 87.5211 13.8158 86.992 14.7176C86.4684 15.6137 85.559 16.0614 84.2639 16.0615C83.7678 16.0615 83.3427 15.9897 82.99 15.8459C82.6373 15.702 82.3177 15.3922 82.0312 14.9166H81.9983C82.0203 15.1379 82.0312 15.3594 82.0312 15.5807V18.717C82.0312 19.0489 81.8657 19.215 81.535 19.215H80.2124C79.8817 19.215 79.7162 19.0489 79.7162 18.717V7.68104C79.7162 7.34912 79.8817 7.183 80.2124 7.183H81.5185C81.7941 7.183 81.9433 7.34912 81.9653 7.68104L81.9983 8.16181H82.0312C82.3177 7.68624 82.6373 7.37643 82.99 7.23258C83.3427 7.08874 83.7678 7.01698 84.2639 7.01698ZM83.5356 8.64333C83.1224 8.64346 82.7666 8.87861 82.4691 9.34871C82.177 9.81337 82.0312 10.4192 82.0312 11.1659V11.9126C82.0312 12.6592 82.1771 13.2678 82.4691 13.738C82.7666 14.2026 83.1224 14.435 83.5356 14.4351C84.2797 14.4351 84.7654 14.1754 84.9914 13.6554C85.2228 13.1298 85.3387 12.4243 85.3387 11.5392C85.3386 10.6541 85.2229 9.95133 84.9914 9.43134C84.7654 8.90588 84.2797 8.64333 83.5356 8.64333Z" fill="#F8F8F8"/>
<path d="M49.2329 4.77615C49.5636 4.77615 49.7291 4.94236 49.7292 5.27419V7.183H51.0682C51.3933 7.183 51.5561 7.32113 51.5561 7.59766V8.42774C51.5561 8.70423 51.3933 8.8424 51.0682 8.8424H49.7292V12.9582C49.7292 13.5225 49.7673 13.9292 49.8444 14.1782C49.9271 14.4216 50.1369 14.5433 50.4731 14.5433C50.6439 14.5433 50.8368 14.5159 51.0517 14.4606C51.2666 14.3998 51.4349 14.3417 51.5561 14.2864C51.7491 14.1978 51.8757 14.2614 51.9364 14.4772L52.1849 15.4229C52.2344 15.6109 52.1622 15.7491 51.9693 15.8376C51.7874 15.9205 51.5367 15.9951 51.2171 16.0615C50.903 16.1334 50.5862 16.1696 50.2665 16.1696C49.4784 16.1696 48.8054 16.0062 48.2487 15.6798C47.6922 15.3534 47.4142 14.6813 47.4142 13.6636V8.8424H46.8521C46.5269 8.8424 46.3641 8.70423 46.3641 8.42774V7.59766C46.3641 7.32113 46.5269 7.183 46.8521 7.183H47.4142V6.89228C47.4142 6.6434 47.4721 6.41634 47.5878 6.21169L48.224 5.09165C48.3453 4.88143 48.489 4.77615 48.6544 4.77615H49.2329Z" fill="#F8F8F8"/>
<path fill-rule="evenodd" clip-rule="evenodd" d="M41.321 7.01698C42.4671 7.01703 43.346 7.28239 43.9578 7.81326C44.575 8.34427 44.8843 9.12719 44.8844 10.1615V15.3981C44.8843 15.7299 44.7187 15.8961 44.3881 15.8962H43.0319C42.7344 15.8961 42.5859 15.7299 42.5858 15.3981V15.1487H42.5694C42.2442 15.4641 41.8525 15.6965 41.395 15.8459C40.9431 15.9897 40.5269 16.0615 40.1466 16.0615C39.2427 16.0615 38.5561 15.8407 38.0876 15.3981C37.6192 14.9501 37.3856 14.3415 37.3855 13.5727C37.3855 12.4664 37.9114 11.6638 38.9641 11.1659C40.0168 10.668 41.219 10.4028 42.5694 10.3696V10.0376C42.5694 9.52862 42.442 9.16906 42.1884 8.95884C41.9349 8.74873 41.5826 8.64339 41.1308 8.64333C40.8112 8.64333 40.5271 8.69054 40.2791 8.78456C40.0366 8.87307 39.824 8.97836 39.6422 9.10006C39.4659 9.21618 39.3056 9.33524 39.1624 9.45689C38.9091 9.67779 38.6997 9.68883 38.5344 9.48994L37.8481 8.64333C37.6772 8.43312 37.7188 8.21707 37.9723 7.9958C38.1652 7.82438 38.3888 7.67527 38.6422 7.54808C38.9012 7.42091 39.2427 7.30185 39.6669 7.19126C40.0913 7.07509 40.643 7.01698 41.321 7.01698ZM42.5694 11.9712C41.6434 12.0763 41.0229 12.2116 40.7087 12.3776C40.3946 12.5435 40.1684 12.7151 40.0306 12.8921C39.8985 13.0691 39.8323 13.2792 39.8323 13.5224C39.8323 13.716 39.8711 13.8849 39.9483 14.0287C40.0254 14.167 40.1467 14.2696 40.312 14.3359C40.4774 14.4023 40.662 14.4351 40.8659 14.4351C41.147 14.4351 41.4201 14.3969 41.6847 14.3194C41.9492 14.2419 42.2443 14.0594 42.5694 13.7718V11.9712Z" fill="#F8F8F8"/>
<path fill-rule="evenodd" clip-rule="evenodd" d="M57.2115 7.01698C58.3579 7.017 59.2373 7.2822 59.8491 7.81326C60.4663 8.34427 60.7749 9.12721 60.7749 10.1615V15.3981C60.7749 15.7299 60.6093 15.8962 60.2787 15.8962H58.9225C58.6251 15.8961 58.4765 15.7298 58.4764 15.3981V15.1487H58.4599C58.1347 15.4641 57.7431 15.6965 57.2856 15.8459C56.8337 15.9897 56.4175 16.0615 56.0372 16.0615C55.1335 16.0614 54.4474 15.8405 53.9789 15.3981C53.5105 14.9501 53.2762 14.3415 53.2761 13.5727C53.2761 12.4663 53.8026 11.6638 54.8554 11.1659C55.9081 10.6681 57.1097 10.4028 58.4599 10.3696V10.0376C58.4599 9.52877 58.3331 9.16908 58.0797 8.95884C57.8262 8.74865 57.4733 8.64336 57.0214 8.64333C56.7017 8.64333 56.4177 8.69051 56.1697 8.78456C55.9272 8.87307 55.7146 8.97837 55.5327 9.10006C55.3565 9.21616 55.1969 9.33527 55.0537 9.45689C54.8002 9.67809 54.5903 9.68901 54.425 9.48994L53.7387 8.64333C53.5679 8.43315 53.6094 8.21704 53.8629 7.9958C54.0558 7.82435 54.2793 7.67529 54.5328 7.54808C54.7918 7.42086 55.1338 7.30189 55.5582 7.19126C55.9825 7.07514 56.5337 7.01698 57.2115 7.01698ZM58.4599 11.9712C57.534 12.0763 56.9134 12.2116 56.5993 12.3776C56.2853 12.5435 56.0597 12.7152 55.9219 12.8921C55.7897 13.0691 55.7229 13.2791 55.7228 13.5224C55.7228 13.716 55.7617 13.8849 55.8388 14.0287C55.916 14.167 56.0373 14.2696 56.2026 14.3359C56.3679 14.4023 56.5526 14.4351 56.7564 14.4351C57.0376 14.4351 57.3107 14.3969 57.5753 14.3194C57.8398 14.242 58.1348 14.0594 58.4599 13.7718V11.9712Z" fill="#F8F8F8"/>
<path fill-rule="evenodd" clip-rule="evenodd" d="M93.1099 7.01698C94.5871 7.01698 95.6844 7.39839 96.4009 8.16181C97.1174 8.92524 97.4757 10.1537 97.4757 11.8465C97.4757 12.1783 97.321 12.3445 97.0124 12.3445H91.5554C91.6435 13.2625 91.8699 13.8403 92.2335 14.0783C92.5972 14.3161 93.019 14.4351 93.4984 14.4351C93.9558 14.4351 94.3059 14.3742 94.5485 14.2526C94.7909 14.1309 94.9954 13.9654 95.1607 13.7553C95.3481 13.5119 95.5797 13.4729 95.8553 13.6388L96.6816 14.1451C97.0068 14.3443 97.0538 14.5822 96.8223 14.8588C96.4861 15.2625 96.0916 15.5641 95.6397 15.7632C95.1877 15.9623 94.4737 16.0615 93.4984 16.0615C91.9166 16.0614 90.7892 15.6581 90.1168 14.8505C89.4444 14.0428 89.1086 12.9388 89.1086 11.5392C89.1087 10.1397 89.456 9.03633 90.1505 8.22867C90.8505 7.42102 91.8367 7.01701 93.1099 7.01698ZM93.2918 8.6516C92.7738 8.65164 92.3629 8.83415 92.0598 9.19922C91.7568 9.55874 91.5919 10.0539 91.5643 10.6843H95.1607C95.1606 10.087 95.0115 9.60013 94.7139 9.22401C94.4162 8.84242 93.9421 8.6516 93.2918 8.6516Z" fill="#F8F8F8"/>
<path fill-rule="evenodd" clip-rule="evenodd" d="M29.5222 3.9964C32.0577 3.9964 33.772 4.51116 34.6649 5.54012C35.5633 6.56905 36.0129 8.03199 36.0129 9.92939C36.0129 11.8269 35.5633 13.2959 34.6649 14.3359C33.7719 15.3758 32.0575 15.8962 29.5222 15.8962H26.6369C26.2512 15.8961 26.0583 15.6883 26.0583 15.2734V4.61839C26.0585 4.2038 26.2513 3.99647 26.6369 3.9964H29.5222ZM28.4729 13.8379H29.3658C31.0741 13.8379 32.1791 13.5199 32.6807 12.8839C33.1823 12.2422 33.4329 11.2571 33.4329 9.92939C33.4329 8.60181 33.1823 7.62283 32.6807 6.99219C32.1792 6.35605 31.0743 6.03746 29.3658 6.03741H28.4729V13.8379Z" fill="#F8F8F8"/>
<path d="M71.308 3.9964C71.7214 3.99642 71.9277 4.17621 71.9277 4.53576V5.58143C71.9277 5.94093 71.7213 6.12078 71.308 6.1208H68.2655V15.4395C68.2655 15.7436 68.1277 15.8961 67.8524 15.8962H66.2649C65.9893 15.8962 65.851 15.7437 65.851 15.4395V6.1208H62.8085C62.3953 6.12075 62.1888 5.9409 62.1888 5.58143V4.53576C62.1888 4.17624 62.3952 3.99645 62.8085 3.9964H71.308Z" fill="#F8F8F8"/>
<path d="M103.519 7.01698C103.834 7.01701 104.093 7.056 104.296 7.13342C104.489 7.20535 104.564 7.33799 104.519 7.53155L104.288 8.51863C104.239 8.73992 104.089 8.80622 103.841 8.7177C103.698 8.66799 103.56 8.64333 103.428 8.64333C102.899 8.64334 102.461 8.96137 102.114 9.59736C101.767 10.2335 101.593 11.1605 101.593 12.3776V15.3981C101.593 15.7299 101.427 15.8962 101.097 15.8962H99.7742C99.4436 15.8962 99.278 15.7299 99.278 15.3981V7.68104C99.278 7.34912 99.4435 7.183 99.7742 7.183H101.08C101.411 7.18303 101.576 7.34916 101.576 7.68104V8.36088H101.609C101.753 8.00695 101.993 7.69438 102.329 7.42338C102.665 7.15237 103.062 7.01698 103.519 7.01698Z" fill="#F8F8F8"/>
</svg>
