<svg width="208" height="27" viewBox="0 0 208 27" fill="none" xmlns="http://www.w3.org/2000/svg">
<path d="M0 6.13139C0 2.74512 2.74512 0 6.13139 0H20.438C23.8242 0 26.5693 2.74512 26.5693 6.13139V20.438C26.5693 23.8242 23.8242 26.5693 20.438 26.5693H6.13139C2.74512 26.5693 0 23.8242 0 20.438V6.13139Z" fill="#DDDDDD"/>
<path d="M21.9708 7.15328H19.416V19.416H21.9708V20.4379H15.8394V19.416H18.3942V7.15328H15.8394V6.13138H21.9708V7.15328Z" fill="#282828"/>
<path fill-rule="evenodd" clip-rule="evenodd" d="M17.4072 19.0967H14.2696L13.4733 16.5609H9.30285L8.50849 19.0967H5.37094L9.44556 7.01955H13.3316L17.4072 19.0967ZM9.99742 14.3435H12.7767L11.4325 10.0623H11.3387L9.99742 14.3435Z" fill="#282828"/>
<path d="M148.5 2C148.776 2 149 2.22386 149 2.5V25.5C149 25.7761 148.776 26 148.5 26C148.224 26 148 25.7761 148 25.5V2.5C148 2.22386 148.224 2 148.5 2Z" fill="white"/>
<path d="M96.9951 9.54199C97.3331 9.54203 97.5543 9.72974 97.6572 10.1045L99.3213 16.2666C99.4021 16.5531 99.4725 16.9244 99.5312 17.3799C99.5973 17.8273 99.6298 18.1141 99.6299 18.2393H99.6963C99.7844 17.85 99.8471 17.5412 99.8838 17.3135C99.9279 17.0782 100.041 16.6262 100.225 15.958L101.802 10.1045C101.905 9.72986 102.125 9.54212 102.463 9.54199H104.437C104.87 9.54215 104.991 9.82878 104.801 10.4014L101.085 21.5801C100.651 22.888 100.118 23.9097 99.4863 24.6445C98.8543 25.3793 97.9759 25.7471 96.8516 25.7471C96.2345 25.747 95.6831 25.6956 95.1982 25.5928C94.9193 25.5339 94.8128 25.3427 94.8789 25.0195L95.1211 23.8066C95.1873 23.491 95.3753 23.3803 95.6836 23.4756C95.9113 23.549 96.1249 23.5869 96.3232 23.5869C96.9183 23.5868 97.3701 23.3029 97.6787 22.7373C97.9946 22.1716 98.2038 21.6863 98.3066 21.2822L98.3408 21.1162L94.6582 10.4014C94.4601 9.82856 94.5817 9.54202 95.0225 9.54199H96.9951Z" fill="white"/>
<path fill-rule="evenodd" clip-rule="evenodd" d="M112.352 9.32227C114.078 9.32238 115.291 9.92056 115.989 11.1182C116.695 12.3086 117.047 13.7125 117.047 15.3291C117.047 16.9459 116.695 18.3539 115.989 19.5518C115.291 20.7422 114.078 21.3368 112.352 21.3369C111.69 21.3369 111.124 21.2418 110.653 21.0508C110.183 20.8596 109.757 20.4482 109.375 19.8164H109.331C109.36 20.1103 109.375 20.4044 109.375 20.6982V24.8652C109.375 25.3059 109.154 25.5264 108.713 25.5264H106.95C106.509 25.5264 106.288 25.3059 106.288 24.8652V10.2041C106.288 9.76315 106.509 9.54199 106.95 9.54199H108.691C109.059 9.54199 109.258 9.76315 109.287 10.2041L109.331 10.8428H109.375C109.757 10.211 110.183 9.79953 110.653 9.6084C111.124 9.41735 111.69 9.3223 112.352 9.32227ZM111.381 11.4824C110.83 11.4826 110.356 11.7954 109.959 12.4199C109.57 13.0371 109.375 13.8414 109.375 14.833V15.8252C109.375 16.8169 109.57 17.6254 109.959 18.25C110.356 18.8672 110.83 19.1766 111.381 19.1768C112.373 19.1768 113.021 18.8314 113.322 18.1406C113.631 17.4425 113.785 16.5048 113.785 15.3291C113.785 14.1536 113.631 13.22 113.322 12.5293C113.021 11.8312 112.373 11.4824 111.381 11.4824Z" fill="white"/>
<path d="M65.6436 6.34473C66.0844 6.34474 66.3056 6.566 66.3057 7.00684V9.54199H68.0908C68.5242 9.54199 68.741 9.72573 68.7412 10.0928V11.1963C68.741 11.5634 68.5242 11.7471 68.0908 11.7471H66.3057V17.2148C66.3057 17.964 66.3562 18.5042 66.459 18.835C66.5692 19.1583 66.8496 19.3203 67.2979 19.3203C67.5255 19.3203 67.783 19.2843 68.0693 19.2109C68.3557 19.1302 68.5796 19.0519 68.7412 18.9785C68.9984 18.8609 69.1682 18.9458 69.249 19.2324L69.5801 20.4893C69.6459 20.7388 69.549 20.9226 69.292 21.04C69.0495 21.1501 68.7149 21.2488 68.2891 21.3369C67.8705 21.4324 67.4484 21.4804 67.0225 21.4805C65.9716 21.4805 65.0742 21.2636 64.332 20.8301C63.5901 20.3964 63.2188 19.5033 63.2188 18.1514V11.7471H62.4697C62.0363 11.7471 61.8186 11.5634 61.8184 11.1963V10.0928C61.8186 9.72573 62.0364 9.54199 62.4697 9.54199H63.2188V9.15625C63.2188 8.82565 63.2959 8.5238 63.4502 8.25195L64.2988 6.76367C64.4605 6.48464 64.6527 6.34473 64.873 6.34473H65.6436Z" fill="white"/>
<path fill-rule="evenodd" clip-rule="evenodd" d="M178.725 9.3623C180.646 9.3623 182.091 9.89827 183.059 10.9697C184.034 12.0412 184.521 13.5191 184.521 15.4033C184.521 17.2875 184.034 18.7655 183.059 19.8369C182.091 20.9083 180.646 21.4443 178.725 21.4443C176.804 21.4443 175.355 20.9082 174.38 19.8369C173.412 18.7655 172.928 17.2875 172.928 15.4033C172.928 13.5191 173.412 12.0412 174.38 10.9697C175.355 9.89831 176.803 9.36234 178.725 9.3623ZM178.725 11.5352C177.912 11.5352 177.288 11.8308 176.852 12.4219C176.423 13.0057 176.209 13.9996 176.209 15.4033C176.209 16.807 176.423 17.8044 176.852 18.3955C177.288 18.9792 177.912 19.2714 178.725 19.2715C179.537 19.2715 180.158 18.9793 180.587 18.3955C181.023 17.8044 181.241 16.807 181.241 15.4033C181.241 13.9996 181.023 13.0057 180.587 12.4219C180.158 11.8307 179.537 11.5352 178.725 11.5352Z" fill="white"/>
<path d="M191.979 9.3623C193.125 9.36234 194.015 9.51351 194.65 9.81641C195.286 10.1193 195.795 10.5629 196.18 11.1465C196.409 11.4937 196.372 11.7673 196.069 11.9668L194.895 12.7432C194.562 12.9648 194.27 12.8797 194.019 12.4883C193.893 12.2962 193.653 12.0889 193.298 11.8672C192.943 11.6457 192.504 11.5352 191.979 11.5352C191.144 11.5352 190.519 11.8307 190.105 12.4219C189.692 13.0057 189.485 13.9997 189.485 15.4033C189.485 16.8069 189.692 17.8043 190.105 18.3955C190.519 18.9793 191.144 19.2715 191.979 19.2715C192.578 19.2714 193.061 19.1456 193.431 18.8945C193.8 18.6433 194.148 18.3179 194.473 17.9189C194.753 17.5791 195.049 17.5316 195.359 17.7754L196.391 18.584C196.701 18.8278 196.72 19.1532 196.446 19.5596C196.158 19.9882 195.666 20.4094 194.972 20.8232C194.285 21.237 193.287 21.4443 191.979 21.4443C190.021 21.4443 188.569 20.9083 187.623 19.8369C186.677 18.7655 186.204 17.2875 186.204 15.4033C186.204 13.5191 186.677 12.0412 187.623 10.9697C188.569 9.89827 190.021 9.3623 191.979 9.3623Z" fill="white"/>
<path d="M203.549 9.3623C204.243 9.36232 204.92 9.46164 205.577 9.66113C206.235 9.86056 206.704 10.0493 206.984 10.2266C207.428 10.5074 207.539 10.8073 207.317 11.125L206.641 12.1113C206.434 12.4066 206.101 12.4288 205.644 12.1777C205.296 11.9856 204.952 11.8301 204.612 11.7119C204.28 11.5938 203.907 11.5352 203.493 11.5352C203.213 11.5352 202.943 11.564 202.685 11.623C202.426 11.6821 202.204 11.7936 202.02 11.9561C201.842 12.1186 201.753 12.3327 201.753 12.5986C201.753 12.8794 201.835 13.1011 201.997 13.2637C202.167 13.4188 202.359 13.5335 202.573 13.6074C202.795 13.6813 203.006 13.7519 203.205 13.8184C203.619 13.9514 204.037 14.0804 204.458 14.2061C204.879 14.3243 205.307 14.4688 205.743 14.6387C206.12 14.7865 206.486 14.9971 206.841 15.2705C207.195 15.5438 207.454 15.8907 207.616 16.3115C207.779 16.7327 207.86 17.2135 207.86 17.7529C207.86 18.4696 207.646 19.1348 207.218 19.748C206.789 20.3614 206.223 20.797 205.521 21.0557C204.82 21.3143 204.003 21.4443 203.072 21.4443C202.031 21.4443 201.144 21.3704 200.412 21.2227C199.681 21.0749 199.056 20.8157 198.539 20.4463C198.177 20.1877 198.077 19.9107 198.239 19.6152L198.805 18.584C199.004 18.2147 199.314 18.1706 199.735 18.4512C200.156 18.7319 200.652 18.9393 201.221 19.0723C201.797 19.2053 202.322 19.2715 202.795 19.2715C203.127 19.2715 203.438 19.2383 203.726 19.1719C204.014 19.1054 204.258 18.9763 204.458 18.7842C204.658 18.5921 204.757 18.3108 204.757 17.9414C204.757 17.7197 204.697 17.5312 204.579 17.376C204.461 17.2209 204.31 17.1027 204.125 17.0215C203.94 16.9402 203.744 16.874 203.537 16.8223C203.264 16.7558 202.869 16.6444 202.352 16.4893C201.842 16.3341 201.35 16.1532 200.877 15.9463C200.486 15.7764 200.101 15.5401 199.725 15.2373C199.355 14.927 199.082 14.5829 198.904 14.2061C198.734 13.8292 198.649 13.3637 198.649 12.8096C198.649 12.0634 198.864 11.4092 199.292 10.8477C199.728 10.2861 200.29 9.89788 200.978 9.68359C201.665 9.46938 202.522 9.3623 203.549 9.3623Z" fill="white"/>
<path fill-rule="evenodd" clip-rule="evenodd" d="M55.0947 9.32227C56.6229 9.32234 57.7947 9.67466 58.6104 10.3799C59.4333 11.0853 59.8456 12.1251 59.8457 13.499V20.4561C59.8456 20.8966 59.625 21.117 59.1846 21.1172H57.376C56.9794 21.1171 56.7814 20.8967 56.7812 20.4561V20.125H56.7588C56.3253 20.5437 55.8031 20.8524 55.1934 21.0508C54.5909 21.2418 54.0362 21.3369 53.5293 21.3369C52.324 21.3369 51.4079 21.044 50.7832 20.4561C50.1588 19.861 49.8478 19.0523 49.8477 18.0312C49.8477 16.5615 50.5486 15.4944 51.9521 14.833C53.3557 14.1717 54.9585 13.8195 56.7588 13.7754V13.335C56.7588 12.6588 56.589 12.1806 56.251 11.9014C55.913 11.6224 55.443 11.4825 54.8408 11.4824C54.4148 11.4825 54.0357 11.5451 53.7051 11.6699C53.382 11.7874 53.0988 11.9273 52.8564 12.0889C52.6214 12.2431 52.4078 12.4019 52.2168 12.5635C51.8791 12.8569 51.5992 12.8716 51.3789 12.6074L50.4639 11.4824C50.2362 11.2032 50.2919 10.916 50.6299 10.6221C50.887 10.3944 51.1855 10.1963 51.5234 10.0273C51.8687 9.85846 52.3243 9.70058 52.8896 9.55371C53.4555 9.39944 54.191 9.32227 55.0947 9.32227ZM56.7588 15.9033C55.5244 16.0429 54.6972 16.2229 54.2783 16.4434C53.8596 16.6638 53.5577 16.8918 53.374 17.127C53.198 17.3619 53.1095 17.6409 53.1094 17.9639C53.1094 18.2211 53.1618 18.4456 53.2646 18.6367C53.3675 18.8203 53.5288 18.9567 53.749 19.0449C53.9695 19.1331 54.2164 19.1768 54.4883 19.1768C54.863 19.1767 55.2274 19.1253 55.5801 19.0225C55.9326 18.9195 56.3255 18.6768 56.7588 18.2949V15.9033Z" fill="white"/>
<path fill-rule="evenodd" clip-rule="evenodd" d="M76.2822 9.32227C77.8107 9.32231 78.9831 9.67441 79.7988 10.3799C80.6217 11.0853 81.0331 12.1251 81.0332 13.499V20.4561C81.0331 20.8966 80.8126 21.1171 80.3721 21.1172H78.5635C78.167 21.117 77.9689 20.8966 77.9688 20.4561V20.125H77.9463C77.5128 20.5437 76.9907 20.8524 76.3809 21.0508C75.7785 21.2418 75.2237 21.3369 74.7168 21.3369C73.5119 21.3369 72.5963 21.0438 71.9717 20.4561C71.3472 19.8609 71.0353 19.0524 71.0352 18.0312C71.0352 16.5614 71.7369 15.4944 73.1406 14.833C74.5441 14.1718 76.1462 13.8195 77.9463 13.7754V13.335C77.9463 12.659 77.7773 12.1807 77.4395 11.9014C77.1015 11.6223 76.6307 11.4825 76.0283 11.4824C75.6022 11.4825 75.2232 11.545 74.8926 11.6699C74.5695 11.7874 74.2863 11.9273 74.0439 12.0889C73.809 12.2431 73.5962 12.4019 73.4053 12.5635C73.0673 12.8573 72.7868 12.8718 72.5664 12.6074L71.6514 11.4824C71.4238 11.2032 71.4794 10.9159 71.8174 10.6221C72.0745 10.3944 72.3722 10.1963 72.71 10.0273C73.0553 9.85838 73.5116 9.70064 74.0771 9.55371C74.643 9.39945 75.3785 9.32227 76.2822 9.32227ZM77.9463 15.9033C76.7118 16.0429 75.8847 16.2229 75.4658 16.4434C75.0471 16.6638 74.7462 16.8919 74.5625 17.127C74.3863 17.362 74.297 17.6408 74.2969 17.9639C74.2969 18.221 74.3493 18.4457 74.4521 18.6367C74.555 18.8203 74.7163 18.9568 74.9365 19.0449C75.1569 19.1331 75.404 19.1767 75.6758 19.1768C76.0504 19.1767 76.415 19.1253 76.7676 19.0225C77.1202 18.9195 77.513 18.6768 77.9463 18.2949V15.9033Z" fill="white"/>
<path fill-rule="evenodd" clip-rule="evenodd" d="M124.146 9.32227C126.116 9.32227 127.579 9.8287 128.534 10.8428C129.49 11.8569 129.968 13.4887 129.968 15.7373C129.968 16.1782 129.761 16.3994 129.35 16.3994H122.074C122.192 17.6184 122.493 18.3858 122.978 18.7021C123.462 19.0181 124.026 19.1767 124.665 19.1768C125.275 19.1767 125.741 19.0952 126.064 18.9336C126.388 18.772 126.66 18.5526 126.881 18.2734C127.131 17.9501 127.439 17.8988 127.807 18.1191L128.909 18.791C129.343 19.0555 129.405 19.3719 129.097 19.7393C128.648 20.2757 128.122 20.6769 127.52 20.9414C126.917 21.2057 125.965 21.3369 124.665 21.3369C122.556 21.3368 121.053 20.8013 120.156 19.7285C119.26 18.6555 118.812 17.1884 118.812 15.3291C118.812 13.47 119.275 12.0045 120.201 10.9316C121.134 9.85883 122.449 9.32234 124.146 9.32227ZM124.389 11.4932C123.698 11.4933 123.15 11.7358 122.746 12.2207C122.342 12.6982 122.123 13.3561 122.086 14.1934H126.881C126.881 13.4 126.682 12.7535 126.285 12.2539C125.888 11.747 125.256 11.4932 124.389 11.4932Z" fill="white"/>
<path fill-rule="evenodd" clip-rule="evenodd" d="M162.478 5.32812C165.877 5.32812 168.175 6.01523 169.372 7.38965C170.576 8.76405 171.179 10.7185 171.179 13.2529C171.179 15.7874 170.577 17.7495 169.372 19.1387C168.175 20.5278 165.876 21.2217 162.478 21.2217H158.609C158.092 21.2216 157.834 20.9448 157.834 20.3906V6.15918C157.834 5.60502 158.092 5.32817 158.609 5.32812H162.478ZM161.07 18.4736H162.268C164.558 18.4736 166.04 18.048 166.712 17.1982C167.384 16.3411 167.721 15.0261 167.721 13.2529C167.721 11.4795 167.384 10.1715 166.712 9.3291C166.04 8.47937 164.558 8.05473 162.268 8.05469H161.07V18.4736Z" fill="white"/>
<path fill-rule="evenodd" clip-rule="evenodd" d="M39.3633 5.30957C42.7434 5.3096 45.0291 5.99272 46.2197 7.35938C47.4175 8.7262 48.0175 10.67 48.0176 13.1904C48.0176 15.7112 47.4176 17.6633 46.2197 19.0449C45.0291 20.4263 42.7434 21.1172 39.3633 21.1172H35.5156C35.0016 21.117 34.7441 20.841 34.7441 20.29V6.13574C34.7443 5.58508 35.0017 5.30977 35.5156 5.30957H39.3633ZM37.9639 18.3828H39.1543C41.4317 18.3828 42.9053 17.9609 43.5742 17.1162C44.243 16.2637 44.5771 14.9542 44.5771 13.1904C44.5771 11.427 44.2429 10.1268 43.5742 9.28906C42.9055 8.44397 41.4323 8.02056 39.1543 8.02051H37.9639V18.3828Z" fill="white"/>
<path d="M95.0771 5.30957C95.6282 5.3096 95.9032 5.54788 95.9033 6.02539V7.41504C95.9032 7.89242 95.6281 8.13083 95.0771 8.13086H91.0205V20.5107C91.0205 20.9147 90.8369 21.117 90.4697 21.1172H88.3535C87.9861 21.1172 87.8018 20.9149 87.8018 20.5107V8.13086H83.7451C83.1942 8.13079 82.9181 7.89238 82.918 7.41504V6.02539C82.9181 5.54792 83.1942 5.30964 83.7451 5.30957H95.0771Z" fill="white"/>
<path d="M138.026 9.32227C138.445 9.32233 138.79 9.37382 139.062 9.47656C139.319 9.57212 139.418 9.74872 139.359 10.0059L139.051 11.3164C138.985 11.6104 138.786 11.6986 138.455 11.5811C138.264 11.515 138.081 11.4824 137.904 11.4824C137.199 11.4824 136.615 11.9051 136.152 12.75C135.689 13.5952 135.457 14.8265 135.457 16.4434V20.4561C135.457 20.8967 135.237 21.1171 134.796 21.1172H133.032C132.591 21.1171 132.371 20.8967 132.371 20.4561V10.2041C132.371 9.76319 132.591 9.54203 133.032 9.54199H134.773C135.214 9.54204 135.436 9.7632 135.436 10.2041V11.1074H135.479C135.671 10.6372 135.99 10.2213 136.438 9.86133C136.887 9.50145 137.417 9.32227 138.026 9.32227Z" fill="white"/>
</svg>
