<svg width="28" height="28" viewBox="0 0 28 28" fill="none" xmlns="http://www.w3.org/2000/svg">
<path d="M23 20C23.5523 20 24 20.4477 24 21C24 21.5523 23.5523 22 23 22H5C4.44772 22 4 21.5523 4 21C4 20.4477 4.44772 20 5 20H23Z" fill="white"/>
<path d="M23 13C23.5523 13 24 13.4477 24 14C24 14.5523 23.5523 15 23 15H5C4.44772 15 4 14.5523 4 14C4 13.4477 4.44772 13 5 13H23Z" fill="white"/>
<path d="M23 6C23.5523 6 24 6.44772 24 7C24 7.55228 23.5523 8 23 8H5C4.44772 8 4 7.55228 4 7C4 6.44772 4.44772 6 5 6H23Z" fill="white"/>
</svg>
